<svg xmlns="http://www.w3.org/2000/svg" viewBox="0 0 220 150" role="img" aria-label="forest clue">
  <rect width="220" height="150" rx="24" fill="#dff8ff"/>
  <path d="M0 103c43-17 82-17 121-4 36 12 62 12 99-7v58H0z" fill="#f1d790"/>
  <circle cx="176" cy="35" r="18" fill="#ffcf5a"/>
  <g stroke="#7b593f" stroke-width="7" stroke-linecap="round">
    <path d="M54 112V77"/>
    <path d="M104 120V86"/>
    <path d="M151 112V80"/>
  </g>
  <g>
    <circle cx="54" cy="69" r="25" fill="#8b9854"/>
    <circle cx="33" cy="80" r="15" fill="#a39a61"/>
    <circle cx="74" cy="81" r="16" fill="#9b965e"/>
    <circle cx="104" cy="78" r="27" fill="#8b9854"/>
    <circle cx="82" cy="90" r="16" fill="#9f9a60"/>
    <circle cx="126" cy="92" r="15" fill="#a5965e"/>
    <circle cx="151" cy="71" r="26" fill="#8b9854"/>
    <circle cx="130" cy="83" r="15" fill="#a5965e"/>
    <circle cx="172" cy="82" r="16" fill="#9b9359"/>
  </g>
  <path d="M35 124c21-7 42-7 64 0m26 4c23-8 43-8 62 0" fill="none" stroke="#8e6c45" stroke-width="5" stroke-linecap="round" stroke-dasharray="1 12"/>
</svg>
